<svg width="44" height="35" viewBox="0 0 44 35" fill="none" xmlns="http://www.w3.org/2000/svg">
<path d="M8.75 24.0625H2.1875C0.97959 24.0625 0 25.0421 0 26.25V32.8125C0 34.0204 0.97959 35 2.1875 35H8.75C9.95791 35 10.9375 34.0204 10.9375 32.8125V26.25C10.9375 25.0421 9.95791 24.0625 8.75 24.0625ZM7.10938 18.5938H20.2344V21.875H23.5156V18.5938H36.6406V21.875H39.9219V17.9382C39.9219 16.491 38.744 15.3125 37.2962 15.3125H23.5156V10.9375H26.25C27.4579 10.9375 28.4375 9.95791 28.4375 8.75V2.1875C28.4375 0.97959 27.4579 0 26.25 0H17.5C16.2921 0 15.3125 0.97959 15.3125 2.1875V8.75C15.3125 9.95791 16.2921 10.9375 17.5 10.9375H20.2344V15.3125H6.45381C5.00596 15.3125 3.82812 16.4903 3.82812 17.9382V21.875H7.10938V18.5938ZM25.1562 24.0625H18.5938C17.3858 24.0625 16.4062 25.0421 16.4062 26.25V32.8125C16.4062 34.0204 17.3858 35 18.5938 35H25.1562C26.3642 35 27.3438 34.0204 27.3438 32.8125V26.25C27.3438 25.0421 26.3642 24.0625 25.1562 24.0625ZM41.5625 24.0625H35C33.7921 24.0625 32.8125 25.0421 32.8125 26.25V32.8125C32.8125 34.0204 33.7921 35 35 35H41.5625C42.7704 35 43.75 34.0204 43.75 32.8125V26.25C43.75 25.0421 42.7704 24.0625 41.5625 24.0625Z" fill="white"/>
</svg>
