<svg width="44" height="35" viewBox="0 0 44 35" fill="none" xmlns="http://www.w3.org/2000/svg">
<path d="M39.375 13.125C41.7881 13.125 43.75 11.1631 43.75 8.75C43.75 6.33691 41.7881 4.375 39.375 4.375C36.9619 4.375 35 6.33691 35 8.75C35 11.1631 36.9619 13.125 39.375 13.125ZM4.375 16.4062C1.96191 16.4062 0 18.3682 0 20.7812C0 23.1943 1.96191 25.1562 4.375 25.1562C6.78809 25.1562 8.75 23.1943 8.75 20.7812C8.75 18.3682 6.78809 16.4062 4.375 16.4062ZM35.1094 13.8633L33.7969 12.1133L30.5156 14.5742L31.8281 16.3242L35.1094 13.8633ZM39.375 26.25C38.3906 26.25 37.4883 26.5918 36.7568 27.1387L30.1943 23.2012C30.4541 22.4355 30.625 21.6289 30.625 20.7744C30.625 16.543 27.2002 13.1182 22.9688 13.1182C22.3945 13.1182 21.834 13.1934 21.3008 13.3164L18.5117 7.3418C19.2363 6.5625 19.6875 5.52344 19.6875 4.375C19.6875 1.96191 17.7256 0 15.3125 0C12.8994 0 10.9375 1.96191 10.9375 4.375C10.9375 6.78809 12.8994 8.75 15.3125 8.75C15.3877 8.75 15.4561 8.72949 15.5312 8.72949L18.334 14.7314C16.5088 16.126 15.3125 18.3066 15.3125 20.7812C15.3125 25.0127 18.7373 28.4375 22.9688 28.4375C25.1631 28.4375 27.125 27.501 28.5195 26.0244L35.0684 29.9551C35.0342 30.1738 35 30.3994 35 30.625C35 33.0381 36.9619 35 39.375 35C41.7881 35 43.75 33.0381 43.75 30.625C43.75 28.2119 41.7881 26.25 39.375 26.25ZM22.9688 24.0625C21.1572 24.0625 19.6875 22.5928 19.6875 20.7812C19.6875 18.9697 21.1572 17.5 22.9688 17.5C24.7803 17.5 26.25 18.9697 26.25 20.7812C26.25 22.5928 24.7803 24.0625 22.9688 24.0625ZM10.3906 21.875H13.6719V19.6875H10.3906V21.875Z" fill="white"/>
</svg>
