<svg width="31" height="35" viewBox="0 0 31 35" fill="none" xmlns="http://www.w3.org/2000/svg">
<path d="M15.3125 17.5C20.1455 17.5 24.0625 13.583 24.0625 8.75C24.0625 3.91699 20.1455 0 15.3125 0C10.4795 0 6.5625 3.91699 6.5625 8.75C6.5625 13.583 10.4795 17.5 15.3125 17.5ZM21.4375 19.6875H20.2959C18.7783 20.3848 17.0898 20.7812 15.3125 20.7812C13.5352 20.7812 11.8535 20.3848 10.3291 19.6875H9.1875C4.11523 19.6875 0 23.8027 0 28.875V31.7188C0 33.5303 1.46973 35 3.28125 35H27.3438C29.1553 35 30.625 33.5303 30.625 31.7188V28.875C30.625 23.8027 26.5098 19.6875 21.4375 19.6875Z" fill="white"/>
</svg>
